<mxfile host="Electron" modified="2024-05-13T06:51:57.898Z" agent="Mozilla/5.0 (Windows NT 10.0; Win64; x64) AppleWebKit/537.36 (KHTML, like Gecko) draw.io/24.2.5 Chrome/120.0.6099.109 Electron/28.1.0 Safari/537.36" etag="wjzPNxl9OqEIiyJFf3J0" version="24.2.5" type="device">
  <diagram name="第1頁" id="vCs7fCb7ofPpMIour40J">
    <mxGraphModel dx="676" dy="482" grid="0" gridSize="10" guides="1" tooltips="1" connect="1" arrows="1" fold="1" page="1" pageScale="1" pageWidth="827" pageHeight="1169" math="0" shadow="0">
      <root>
        <mxCell id="0" />
        <mxCell id="1" parent="0" />
        <mxCell id="1_-XdCLeNsQi_0JM81zJ-1" style="edgeStyle=orthogonalEdgeStyle;rounded=0;orthogonalLoop=1;jettySize=auto;html=1;" edge="1" parent="1" target="1_-XdCLeNsQi_0JM81zJ-4" source="1_-XdCLeNsQi_0JM81zJ-8">
          <mxGeometry relative="1" as="geometry">
            <mxPoint x="301" y="162" as="sourcePoint" />
          </mxGeometry>
        </mxCell>
        <mxCell id="1_-XdCLeNsQi_0JM81zJ-2" style="edgeStyle=orthogonalEdgeStyle;rounded=0;orthogonalLoop=1;jettySize=auto;html=1;" edge="1" parent="1" source="1_-XdCLeNsQi_0JM81zJ-4" target="1_-XdCLeNsQi_0JM81zJ-5">
          <mxGeometry relative="1" as="geometry" />
        </mxCell>
        <mxCell id="1_-XdCLeNsQi_0JM81zJ-4" value="BFS" style="rounded=1;whiteSpace=wrap;html=1;flipH=0;flipV=1;" vertex="1" parent="1">
          <mxGeometry x="133.5" y="148" width="78" height="41" as="geometry" />
        </mxCell>
        <UserObject label="用queue紀錄，每一層的node，回傳最左邊的node的Values" link="https://www.notion.so/7232d645de734dde8dcb7c9f48a1ab0c?p=5c364d9000704877ae42a2daf3fe5e2c&amp;pm=s" id="1_-XdCLeNsQi_0JM81zJ-5">
          <mxCell style="rounded=1;whiteSpace=wrap;html=1;fillColor=#d5e8d4;strokeColor=#82b366;" vertex="1" parent="1">
            <mxGeometry x="83" y="254" width="179" height="41" as="geometry" />
          </mxCell>
        </UserObject>
        <mxCell id="1_-XdCLeNsQi_0JM81zJ-9" value="" style="edgeStyle=orthogonalEdgeStyle;rounded=0;orthogonalLoop=1;jettySize=auto;html=1;" edge="1" parent="1" source="1_-XdCLeNsQi_0JM81zJ-8" target="1_-XdCLeNsQi_0JM81zJ-4">
          <mxGeometry relative="1" as="geometry" />
        </mxCell>
        <mxCell id="1_-XdCLeNsQi_0JM81zJ-11" style="edgeStyle=orthogonalEdgeStyle;rounded=0;orthogonalLoop=1;jettySize=auto;html=1;entryX=0.5;entryY=0;entryDx=0;entryDy=0;" edge="1" parent="1" source="1_-XdCLeNsQi_0JM81zJ-8" target="1_-XdCLeNsQi_0JM81zJ-10">
          <mxGeometry relative="1" as="geometry" />
        </mxCell>
        <mxCell id="1_-XdCLeNsQi_0JM81zJ-8" value="Binary Tree&amp;nbsp; Traversal" style="rounded=1;whiteSpace=wrap;html=1;" vertex="1" parent="1">
          <mxGeometry x="241" y="67" width="120" height="60" as="geometry" />
        </mxCell>
        <mxCell id="1_-XdCLeNsQi_0JM81zJ-13" value="" style="edgeStyle=orthogonalEdgeStyle;rounded=0;orthogonalLoop=1;jettySize=auto;html=1;" edge="1" parent="1" source="1_-XdCLeNsQi_0JM81zJ-10" target="1_-XdCLeNsQi_0JM81zJ-12">
          <mxGeometry relative="1" as="geometry" />
        </mxCell>
        <mxCell id="1_-XdCLeNsQi_0JM81zJ-15" value="" style="edgeStyle=orthogonalEdgeStyle;rounded=0;orthogonalLoop=1;jettySize=auto;html=1;entryX=0.5;entryY=0;entryDx=0;entryDy=0;" edge="1" parent="1" source="1_-XdCLeNsQi_0JM81zJ-10" target="1_-XdCLeNsQi_0JM81zJ-16">
          <mxGeometry relative="1" as="geometry">
            <mxPoint x="414.02857142857147" y="229.5" as="targetPoint" />
          </mxGeometry>
        </mxCell>
        <mxCell id="1_-XdCLeNsQi_0JM81zJ-20" style="edgeStyle=orthogonalEdgeStyle;rounded=0;orthogonalLoop=1;jettySize=auto;html=1;entryX=0.5;entryY=0;entryDx=0;entryDy=0;" edge="1" parent="1" source="1_-XdCLeNsQi_0JM81zJ-10" target="1_-XdCLeNsQi_0JM81zJ-18">
          <mxGeometry relative="1" as="geometry" />
        </mxCell>
        <mxCell id="1_-XdCLeNsQi_0JM81zJ-10" value="Traversal" style="rounded=1;whiteSpace=wrap;html=1;flipH=0;flipV=1;" vertex="1" parent="1">
          <mxGeometry x="510.5" y="148" width="78" height="41" as="geometry" />
        </mxCell>
        <mxCell id="1_-XdCLeNsQi_0JM81zJ-28" style="edgeStyle=orthogonalEdgeStyle;rounded=0;orthogonalLoop=1;jettySize=auto;html=1;entryX=0.5;entryY=0;entryDx=0;entryDy=0;curved=1;strokeColor=default;align=center;verticalAlign=middle;fontFamily=Helvetica;fontSize=11;fontColor=default;labelBackgroundColor=default;endArrow=classic;" edge="1" parent="1" source="1_-XdCLeNsQi_0JM81zJ-12" target="1_-XdCLeNsQi_0JM81zJ-24">
          <mxGeometry relative="1" as="geometry">
            <Array as="points">
              <mxPoint x="672" y="368" />
              <mxPoint x="550" y="368" />
            </Array>
          </mxGeometry>
        </mxCell>
        <mxCell id="1_-XdCLeNsQi_0JM81zJ-12" value="PostOrder" style="whiteSpace=wrap;html=1;rounded=1;" vertex="1" parent="1">
          <mxGeometry x="624" y="248" width="97" height="41.5" as="geometry" />
        </mxCell>
        <mxCell id="1_-XdCLeNsQi_0JM81zJ-25" style="edgeStyle=orthogonalEdgeStyle;rounded=0;orthogonalLoop=1;jettySize=auto;html=1;curved=1;" edge="1" parent="1" source="1_-XdCLeNsQi_0JM81zJ-16" target="1_-XdCLeNsQi_0JM81zJ-24">
          <mxGeometry relative="1" as="geometry">
            <Array as="points">
              <mxPoint x="426" y="364" />
              <mxPoint x="550" y="364" />
            </Array>
          </mxGeometry>
        </mxCell>
        <mxCell id="1_-XdCLeNsQi_0JM81zJ-16" value="PreOrder" style="whiteSpace=wrap;html=1;rounded=1;" vertex="1" parent="1">
          <mxGeometry x="378" y="248" width="97" height="41.5" as="geometry" />
        </mxCell>
        <mxCell id="1_-XdCLeNsQi_0JM81zJ-27" value="" style="edgeStyle=orthogonalEdgeStyle;rounded=0;orthogonalLoop=1;jettySize=auto;html=1;" edge="1" parent="1" source="1_-XdCLeNsQi_0JM81zJ-18" target="1_-XdCLeNsQi_0JM81zJ-24">
          <mxGeometry relative="1" as="geometry">
            <Array as="points">
              <mxPoint x="551" y="408" />
              <mxPoint x="551" y="408" />
            </Array>
          </mxGeometry>
        </mxCell>
        <mxCell id="1_-XdCLeNsQi_0JM81zJ-18" value="InOrder" style="whiteSpace=wrap;html=1;rounded=1;" vertex="1" parent="1">
          <mxGeometry x="501" y="248" width="97" height="41.5" as="geometry" />
        </mxCell>
        <mxCell id="1_-XdCLeNsQi_0JM81zJ-21" value="中左右" style="text;html=1;align=center;verticalAlign=middle;whiteSpace=wrap;rounded=0;fillColor=#dae8fc;strokeColor=#6c8ebf;" vertex="1" parent="1">
          <mxGeometry x="354" y="230" width="60" height="30" as="geometry" />
        </mxCell>
        <mxCell id="1_-XdCLeNsQi_0JM81zJ-22" value="左中右" style="text;html=1;align=center;verticalAlign=middle;whiteSpace=wrap;rounded=0;fillColor=#dae8fc;strokeColor=#6c8ebf;" vertex="1" parent="1">
          <mxGeometry x="483" y="230" width="60" height="30" as="geometry" />
        </mxCell>
        <mxCell id="1_-XdCLeNsQi_0JM81zJ-23" value="左右中" style="text;html=1;align=center;verticalAlign=middle;whiteSpace=wrap;rounded=0;fillColor=#dae8fc;strokeColor=#6c8ebf;" vertex="1" parent="1">
          <mxGeometry x="608" y="230" width="60" height="30" as="geometry" />
        </mxCell>
        <mxCell id="1_-XdCLeNsQi_0JM81zJ-30" value="" style="edgeStyle=orthogonalEdgeStyle;rounded=0;orthogonalLoop=1;jettySize=auto;html=1;" edge="1" parent="1" source="1_-XdCLeNsQi_0JM81zJ-24" target="1_-XdCLeNsQi_0JM81zJ-29">
          <mxGeometry relative="1" as="geometry" />
        </mxCell>
        <mxCell id="1_-XdCLeNsQi_0JM81zJ-24" value="常用變形技巧" style="rounded=1;whiteSpace=wrap;html=1;" vertex="1" parent="1">
          <mxGeometry x="489.5" y="406" width="120" height="60" as="geometry" />
        </mxCell>
        <mxCell id="1_-XdCLeNsQi_0JM81zJ-29" value="在Traversal的過程中，傳遞其他參數" style="whiteSpace=wrap;html=1;rounded=1;" vertex="1" parent="1">
          <mxGeometry x="117" y="492" width="347" height="60" as="geometry" />
        </mxCell>
        <UserObject label="目前是第幾個的layer" link="https://www.notion.so/Binary-Tree-Level-Order-Traversal-8c52619e26bf49adbea7f75778fdc2ae" id="1_-XdCLeNsQi_0JM81zJ-37">
          <mxCell style="rounded=1;whiteSpace=wrap;html=1;" vertex="1" parent="1">
            <mxGeometry x="133.5" y="571" width="120" height="60" as="geometry" />
          </mxCell>
        </UserObject>
      </root>
    </mxGraphModel>
  </diagram>
</mxfile>
